<svg width="24" height="24" viewBox="0 0 24 24" fill="none" xmlns="http://www.w3.org/2000/svg">
<path d="M11.6583 2.09941C14.7733 2.09941 15.1422 2.11307 16.3672 2.16772C17.5057 2.21782 18.1205 2.40909 18.5304 2.56848C19.0723 2.77796 19.464 3.03299 19.8693 3.4383C20.2791 3.84816 20.5296 4.23525 20.7391 4.77718C20.8985 5.18705 21.0897 5.8064 21.1398 6.94035C21.1945 8.16994 21.2081 8.53882 21.2081 11.6492C21.2081 14.7642 21.1945 15.1331 21.1398 16.3581C21.0897 17.4966 20.8985 18.1114 20.7391 18.5213C20.5296 19.0632 20.2746 19.4548 19.8693 19.8602C19.4594 20.27 19.0723 20.5205 18.5304 20.73C18.1205 20.8894 17.5012 21.0806 16.3672 21.1307C15.1376 21.1854 14.7687 21.199 11.6583 21.199C8.54337 21.199 8.1745 21.1854 6.94946 21.1307C5.81095 21.0806 5.19616 20.8894 4.78629 20.73C4.24436 20.5205 3.85271 20.2655 3.44741 19.8602C3.03754 19.4503 2.78707 19.0632 2.57758 18.5213C2.41819 18.1114 2.22692 17.4921 2.17683 16.3581C2.12218 15.1285 2.10852 14.7596 2.10852 11.6492C2.10852 8.53426 2.12218 8.16539 2.17683 6.94035C2.22692 5.80184 2.41819 5.18705 2.57758 4.77718C2.78707 4.23525 3.0421 3.84361 3.44741 3.4383C3.85727 3.02843 4.24436 2.77796 4.78629 2.56848C5.19616 2.40909 5.81551 2.21782 6.94946 2.16772C8.1745 2.11307 8.54337 2.09941 11.6583 2.09941ZM11.6583 0C8.49328 0 8.09708 0.0136621 6.85383 0.0683105C5.61513 0.122959 4.76352 0.323337 4.02577 0.610241C3.25614 0.910807 2.60491 1.30701 1.95824 1.95824C1.30701 2.60491 0.910807 3.25614 0.610241 4.02121C0.323337 4.76352 0.122959 5.61057 0.0683106 6.84927C0.0136621 8.09708 0 8.49328 0 11.6583C0 14.8234 0.0136621 15.2196 0.0683106 16.4628C0.122959 17.7015 0.323337 18.5531 0.610241 19.2909C0.910807 20.0605 1.30701 20.7118 1.95824 21.3584C2.60491 22.0051 3.25614 22.4059 4.02121 22.7019C4.76352 22.9888 5.61057 23.1892 6.84927 23.2438C8.09252 23.2984 8.48872 23.3121 11.6538 23.3121C14.8188 23.3121 15.215 23.2984 16.4583 23.2438C17.697 23.1892 18.5486 22.9888 19.2863 22.7019C20.0514 22.4059 20.7026 22.0051 21.3493 21.3584C21.996 20.7118 22.3968 20.0605 22.6928 19.2955C22.9797 18.5531 23.18 17.7061 23.2347 16.4674C23.2893 15.2241 23.303 14.8279 23.303 11.6629C23.303 8.49783 23.2893 8.10163 23.2347 6.85838C23.18 5.61968 22.9797 4.76808 22.6928 4.03032C22.4059 3.25614 22.0097 2.60491 21.3584 1.95824C20.7118 1.31156 20.0605 0.910807 19.2955 0.614795C18.5531 0.327891 17.7061 0.127513 16.4674 0.0728646C15.2196 0.0136621 14.8234 0 11.6583 0Z" fill="white"/>
</svg>
