<svg width="12" height="12" viewBox="0 0 12 12" fill="none" xmlns="http://www.w3.org/2000/svg">
<g clip-path="url(#clip0_26_1116)">
<path d="M7.39597 10.4704C7.36899 10.4704 7.34201 10.4652 7.31591 10.4556C7.26021 10.4339 7.21583 10.3913 7.19147 10.3364L5.89136 7.3307L4.27362 8.85097C4.20923 8.91188 4.11437 8.92755 4.03257 8.89274C3.95164 8.85793 3.89856 8.777 3.89856 8.68824V1.33663C3.89856 1.24787 3.95077 1.16781 4.03257 1.13213C4.1135 1.09732 4.20836 1.11299 4.27362 1.1739L9.62024 6.16373C9.68464 6.22378 9.70727 6.31689 9.67855 6.39956C9.64983 6.4831 9.57499 6.54141 9.4871 6.54924L7.21844 6.74417L8.57859 9.70987C8.60296 9.76296 8.60557 9.82474 8.58468 9.88044C8.5638 9.93613 8.5229 9.98051 8.46895 10.0049L7.48821 10.4504C7.45862 10.4635 7.42816 10.4704 7.39597 10.4704Z" fill="black"/>
</g>
<defs>
<clipPath id="clip0_26_1116">
<rect width="11.1388" height="11.1388" fill="white"/>
</clipPath>
</defs>
</svg>
