<svg width="7" height="6" viewBox="0 0 7 6" fill="none" xmlns="http://www.w3.org/2000/svg">
<path d="M3.17736 1.43853L3.19155 1.67243L2.95514 1.64379C2.0946 1.534 1.34281 1.16167 0.704505 0.536354L0.392442 0.226081L0.312063 0.455206C0.141847 0.965963 0.250596 1.50536 0.605212 1.86814C0.794341 2.06863 0.751787 2.09727 0.42554 1.97793C0.312063 1.93974 0.21277 1.9111 0.203313 1.92542C0.170216 1.95884 0.283693 2.39322 0.373529 2.56506C0.496463 2.80374 0.747059 3.03763 1.0213 3.17606L1.25298 3.28585L0.978742 3.29063C0.713961 3.29063 0.704505 3.2954 0.732874 3.39564C0.827439 3.70592 1.20097 4.03528 1.61705 4.17849L1.9102 4.27873L1.65488 4.43148C1.27662 4.65106 0.832167 4.77517 0.387714 4.78471C0.174944 4.78949 0 4.80858 0 4.8229C0 4.87063 0.576843 5.13795 0.912547 5.24296C1.91966 5.55324 3.1159 5.41958 4.01426 4.88973C4.65257 4.51263 5.29088 3.7632 5.58876 3.03763C5.74952 2.65099 5.91028 1.94452 5.91028 1.6056C5.91028 1.38603 5.92446 1.35739 6.18924 1.09485C6.34527 0.942096 6.49185 0.775026 6.52022 0.727291C6.5675 0.636596 6.56277 0.636596 6.32163 0.717745C5.91973 0.860948 5.86299 0.841854 6.06158 0.627049C6.20815 0.474299 6.3831 0.19744 6.3831 0.116292C6.3831 0.101971 6.31217 0.125839 6.23179 0.168799C6.14669 0.216534 5.95756 0.288135 5.81571 0.331096L5.56039 0.412245L5.3287 0.254721C5.20104 0.168799 5.02137 0.0733307 4.92681 0.0446901C4.68567 -0.022138 4.31686 -0.0125911 4.09937 0.0637839C3.50834 0.278589 3.13481 0.832307 3.17736 1.43853Z" fill="white"/>
</svg>
