<svg width="14" height="13" viewBox="0 0 14 13" fill="none" xmlns="http://www.w3.org/2000/svg">
<g filter="url(#filter0_d_26_1021)">
<g clip-path="url(#clip0_26_1021)">
<rect x="1.40765" y="1.40767" width="10.9062" height="10.0883" rx="1.17306" fill="black"/>
<path d="M4.3629 3.45793L4.90095 3.67426C4.9065 3.67426 4.91205 3.67981 4.92314 3.67981C4.93978 3.67981 4.95642 3.67426 4.96752 3.66317L5.28924 3.29152C5.30588 3.27488 5.30588 3.24715 5.29479 3.22496L4.99525 2.72018C4.98416 2.69799 4.95642 2.6869 4.92869 2.69245L4.37954 2.85886C4.35735 2.8644 4.34071 2.88659 4.34071 2.90878L4.32407 3.40246C4.32407 3.4302 4.34071 3.44684 4.3629 3.45793ZM4.45165 2.95315L4.92314 2.81448L5.17276 3.24715L4.9065 3.55778L4.4461 3.36918L4.45165 2.95315Z" fill="#FFD470"/>
<path d="M5.0175 4.4618L4.80671 4.99431C4.79562 5.0165 4.80671 5.04424 4.82335 5.05533L5.2061 5.37151C5.21719 5.3826 5.22828 5.3826 5.23938 5.3826C5.25047 5.3826 5.25602 5.3826 5.26711 5.37706L5.76634 5.08861C5.78853 5.07752 5.79962 5.05533 5.79408 5.0276L5.69978 4.55055C5.69423 4.52837 5.67759 4.51173 5.6554 4.50618L5.07297 4.42297C5.05078 4.42297 5.02304 4.43407 5.0175 4.4618ZM5.59993 4.61157L5.67759 5.0165L5.24492 5.26612L4.9232 4.99986L5.1007 4.54501L5.59993 4.61157Z" fill="#FFD470"/>
<path d="M4.30186 3.72405C4.28522 3.70741 4.25194 3.70741 4.2353 3.7185L3.75826 4.05132C3.73607 4.06242 3.73052 4.09015 3.73607 4.11234L3.87475 4.58383C3.88029 4.60602 3.90248 4.62266 3.92467 4.62266L4.5071 4.66149H4.51265C4.53484 4.66149 4.55703 4.6504 4.56257 4.62821L4.75117 4.1789C4.76227 4.15671 4.75672 4.13453 4.73453 4.11789L4.30186 3.72405ZM4.47382 4.55055L3.97459 4.51727L3.8581 4.11789L4.25749 3.83499L4.62914 4.16781L4.47382 4.55055Z" fill="#FFD470"/>
<path d="M6.29328 4.01242C6.28218 3.94585 6.27109 3.87929 6.25445 3.81827C6.21562 3.6796 6.1657 3.54647 6.09913 3.42443C6.04921 3.33568 5.99929 3.25248 5.93827 3.17482C5.611 2.76434 5.10622 2.49809 4.54043 2.49809C4.05229 2.49809 3.60298 2.69778 3.28126 3.02505C3.24798 3.05833 3.22024 3.09161 3.19251 3.1249C3.06493 3.27466 2.95953 3.44662 2.88742 3.63522C2.87078 3.67405 2.85969 3.70733 2.84859 3.74616C2.79867 3.91257 2.77094 4.08453 2.77094 4.26758C2.77094 4.48946 2.80976 4.70024 2.88742 4.89439C2.91516 4.97205 2.95399 5.0497 2.99281 5.11627C3.03164 5.18838 3.07602 5.25494 3.1204 5.31596C3.17032 5.38252 3.22024 5.44354 3.27571 5.49901C3.4865 5.71534 3.74721 5.87621 4.04674 5.95941C4.08557 5.97051 4.1244 5.9816 4.16323 5.98715C4.28527 6.01488 4.41285 6.02597 4.54043 6.02597C4.56262 6.02597 4.5848 6.02597 4.61254 6.02597C4.65691 6.02597 4.70129 6.02043 4.74567 6.01488C5.62764 5.91504 6.31547 5.16619 6.31547 4.25648C6.30992 4.17883 6.30437 4.09562 6.29328 4.01242ZM6.17679 4.00132L6.17124 4.01796L5.67202 3.98468L5.55553 3.5853L5.91054 3.33568C6.04366 3.52983 6.13796 3.75725 6.17679 4.00132ZM3.32563 3.14154L3.45876 3.15818L3.53642 3.56311L3.10375 3.81272L2.98172 3.70733C3.05383 3.49654 3.17587 3.3024 3.32563 3.14154ZM3.34228 5.41026C3.19805 5.25494 3.08157 5.07744 2.99836 4.87775V4.85001L3.46986 4.71134L3.71947 5.144L3.45322 5.45463L3.34228 5.41026ZM4.67356 5.92058C4.62918 5.92613 4.5848 5.92613 4.54043 5.92613C4.40175 5.92613 4.26862 5.90949 4.14659 5.87621L4.09112 5.53784L4.45168 5.32705L4.81778 5.64878L4.67356 5.92058ZM4.80668 5.90394L4.93426 5.67097C4.94536 5.64878 4.93981 5.62104 4.92317 5.6044L4.4905 5.22721C4.47386 5.21057 4.44613 5.21057 4.42394 5.22166L3.99682 5.47128C3.97463 5.48237 3.96354 5.50456 3.96909 5.52675L4.02456 5.84847C3.83041 5.78745 3.65845 5.68761 3.50314 5.56557C3.50314 5.56557 3.50314 5.56557 3.50869 5.56557L3.83041 5.19393C3.84705 5.17728 3.84705 5.14955 3.83596 5.12736L3.54197 4.61704C3.53087 4.59485 3.50314 4.58376 3.4754 4.5893L2.94844 4.75017C2.90961 4.59485 2.88188 4.43399 2.88188 4.26758C2.88188 4.11226 2.90406 3.96249 2.94289 3.82382L3.05938 3.92366C3.07047 3.93476 3.08157 3.93476 3.09266 3.93476C3.10375 3.93476 3.1093 3.93476 3.1204 3.92921L3.61963 3.64077C3.64181 3.62967 3.65291 3.60748 3.64736 3.57975L3.55306 3.09716C3.54751 3.07497 3.53087 3.05833 3.50869 3.05278L3.41993 3.04169C3.71947 2.77543 4.10776 2.60902 4.54043 2.60902C5.06739 2.60902 5.53889 2.85864 5.84397 3.24138L5.45568 3.51319C5.43349 3.52428 5.42795 3.55201 5.43349 3.5742L5.57217 4.0457C5.57772 4.06789 5.5999 4.08453 5.62209 4.08453L6.18789 4.12336C6.19343 4.16773 6.19343 4.21765 6.19343 4.26758C6.19898 5.09408 5.59436 5.77636 4.80668 5.90394Z" fill="#FFD470"/>
<path d="M10.9242 3.95726C10.9242 3.95164 10.9242 3.94602 10.9242 3.9404C10.8624 3.59768 10.6995 3.27181 10.4354 3.01336C10.1713 2.7493 9.84545 2.58636 9.50273 2.52456C9.49711 2.52456 9.49149 2.52456 9.48587 2.52456C8.93527 2.42905 8.34533 2.59198 7.92395 3.01336C7.49695 3.44036 7.33401 4.0303 7.43515 4.58652C7.43515 4.58652 7.43515 4.58652 7.43515 4.59214C7.49695 4.93487 7.65988 5.26073 7.92395 5.5248C8.27229 5.87314 8.72177 6.0417 9.17686 6.0417C9.63195 6.0417 10.087 5.86752 10.4298 5.5248C10.8568 5.0978 11.0197 4.50786 10.9242 3.95726ZM9.51397 2.63693C9.80612 2.69873 10.0814 2.83357 10.3118 3.05269L9.66566 3.69881C9.40721 3.40665 9.35103 2.99089 9.51397 2.63693ZM10.3904 3.12573C10.6096 3.35609 10.7444 3.63139 10.8062 3.92355C10.4522 4.0921 10.0365 4.0303 9.74432 3.77185L10.3904 3.12573ZM9.40721 2.62007C9.23304 3.00774 9.30608 3.45722 9.59824 3.77747L9.18248 4.19323L8.03632 3.05269C8.35657 2.75491 8.76671 2.60322 9.17686 2.60322C9.25552 2.60322 9.32856 2.60884 9.40721 2.62007ZM7.96328 3.12573L9.10382 4.26627L8.67682 4.69327C8.36219 4.40673 7.91833 4.33369 7.53628 4.49663C7.45762 4.01906 7.6037 3.50778 7.96328 3.12573ZM8.83414 5.89562C8.5476 5.83381 8.27229 5.69897 8.04194 5.47985L8.67682 4.84497C8.92965 5.13713 8.99145 5.54166 8.83414 5.89562ZM7.54751 4.609C7.89586 4.44606 8.30038 4.50786 8.59254 4.77193L7.96328 5.40681C7.74416 5.17646 7.60932 4.90115 7.54751 4.609ZM8.94088 5.91247C9.10382 5.5248 9.03078 5.08094 8.74424 4.77193L9.17124 4.34493L10.3118 5.48547C9.93535 5.83943 9.42407 5.98551 8.94088 5.91247ZM10.3904 5.40681L9.2499 4.26627L9.66566 3.85051C9.86793 4.03592 10.1264 4.13143 10.3848 4.13143C10.5309 4.13143 10.677 4.10334 10.8174 4.04153C10.8905 4.5191 10.75 5.02476 10.3904 5.40681Z" fill="#FFD470"/>
<path d="M10.8896 6.96861C10.8843 6.94595 10.8686 6.92896 10.8477 6.92329C10.832 6.91763 10.4137 6.83832 9.89087 6.86664C9.19023 6.9063 8.63599 7.12723 8.28044 7.51244C7.92489 7.89765 7.72097 8.49813 7.68437 9.25723C7.65822 9.82372 7.73142 10.2769 7.73665 10.2939C7.74188 10.3166 7.75757 10.3336 7.77848 10.3392C7.79417 10.3449 8.0922 10.4015 8.50527 10.4015C8.57847 10.4015 8.6569 10.4015 8.73533 10.3959C8.74579 10.3959 8.75625 10.3959 8.7667 10.3959C8.77193 10.4015 8.78239 10.4015 8.79285 10.4015C8.80331 10.4015 8.81376 10.3959 8.82422 10.3902C9.48304 10.3392 10.0111 10.1183 10.351 9.75007C10.7065 9.36486 10.9105 8.76438 10.9471 8.00529C10.968 7.4388 10.8896 6.98561 10.8896 6.96861ZM7.82554 10.2429C7.80985 10.1296 7.7628 9.77273 7.77848 9.3422L8.6569 10.2939C8.25952 10.3052 7.93011 10.2599 7.82554 10.2429ZM10.2726 9.67643C9.88042 10.1013 9.30003 10.2486 8.79808 10.2826L7.78894 9.18925C7.82554 8.64542 7.96149 8.01662 8.34841 7.59175C8.73533 7.17255 9.30526 7.02526 9.80199 6.98561C9.80199 6.99127 9.80721 6.99127 9.80721 6.99694L10.5079 7.75603C10.5183 7.76736 10.5288 7.77303 10.5445 7.77303C10.5601 7.77303 10.5706 7.76736 10.5811 7.75603C10.602 7.73337 10.602 7.69938 10.5811 7.67672L9.9327 6.97994C10.3458 6.96295 10.6856 7.00826 10.7954 7.03092C10.8111 7.14422 10.8582 7.51811 10.8373 7.96563L10.7222 7.841C10.7013 7.81834 10.6699 7.81834 10.649 7.841C10.6281 7.86366 10.6281 7.89765 10.649 7.92031L10.8268 8.11292C10.7902 8.63975 10.6543 9.25723 10.2726 9.67643Z" fill="#FFD470"/>
<path d="M9.60857 8.23762L9.49354 8.36225L9.40466 8.26594C9.38374 8.24328 9.35237 8.24328 9.33145 8.26594C9.31054 8.2886 9.31054 8.32259 9.33145 8.34525L9.42034 8.44155L9.31054 8.56052L9.22165 8.46421C9.20074 8.44155 9.16936 8.44155 9.14845 8.46421C9.12753 8.48687 9.12753 8.52086 9.14845 8.54352L9.23734 8.63982L9.12753 8.75879L9.03865 8.66248C9.01773 8.63983 8.98636 8.63983 8.96544 8.66248C8.94453 8.68514 8.94453 8.71913 8.96544 8.74179L9.05433 8.8381L8.9393 8.96272C8.91839 8.98538 8.91839 9.01937 8.9393 9.04203C8.94976 9.05336 8.96022 9.05903 8.9759 9.05903C8.99159 9.05903 9.00205 9.05336 9.0125 9.04203L9.12753 8.9174L9.21642 9.01371C9.22688 9.02504 9.23734 9.0307 9.25302 9.0307C9.26348 9.0307 9.27917 9.02504 9.28962 9.01371C9.31054 8.99105 9.31054 8.95706 9.28962 8.9344L9.20074 8.8381L9.31054 8.71913L9.39943 8.81544C9.40988 8.82677 9.42034 8.83243 9.43603 8.83243C9.44648 8.83243 9.46217 8.82677 9.47263 8.81544C9.49354 8.79278 9.49354 8.75879 9.47263 8.73613L9.38374 8.63982L9.49354 8.52086L9.58243 8.61717C9.59289 8.6285 9.60334 8.63416 9.61903 8.63416C9.63472 8.63416 9.64517 8.6285 9.65563 8.61717C9.67655 8.59451 9.67655 8.56052 9.65563 8.53786L9.56674 8.44155L9.68178 8.31693C9.70269 8.29427 9.70269 8.26028 9.68178 8.23762C9.66086 8.21496 9.62949 8.21496 9.60857 8.23762Z" fill="#FFD470"/>
<g filter="url(#filter1_d_26_1021)">
<path d="M5.79961 7.38074C5.10602 6.68715 3.98472 6.68715 3.29113 7.38074C2.59754 8.07433 2.59754 9.19563 3.29113 9.88922C3.63792 10.236 4.08876 10.4094 4.54537 10.4094C5.00198 10.4094 5.45282 10.236 5.79961 9.88922C6.48742 9.19563 6.48742 8.07433 5.79961 7.38074ZM6.2042 8.47893C6.03659 8.50782 5.86897 8.61186 5.74181 8.7737C5.63199 8.9182 5.55685 9.08004 5.48749 9.24187C5.47593 9.27077 5.46438 9.29967 5.45282 9.32279C5.3719 9.50197 5.27942 9.68693 5.12914 9.80831C4.8806 10.0164 4.54537 10.0106 4.36619 9.98748C3.9038 9.92968 3.48764 9.65225 3.30847 9.27077C3.11195 8.8604 3.21021 8.34021 3.53388 8.06855C3.80554 7.83736 4.18701 7.7969 4.55693 7.75644C4.64941 7.74488 4.75345 7.73332 4.84592 7.72176C4.98464 7.69864 5.12914 7.66974 5.25052 7.58882C5.36612 7.51368 5.44703 7.36918 5.45859 7.23624C5.55107 7.29982 5.64355 7.36918 5.72447 7.45588C6.00769 7.74488 6.16952 8.10901 6.2042 8.47893ZM5.72447 9.81409C5.07712 10.4614 4.0194 10.4614 3.37205 9.81409C2.7247 9.16674 2.7247 8.10901 3.37205 7.46166C3.69572 7.13799 4.12343 6.97615 4.55115 6.97615C4.82858 6.97615 5.10602 7.04551 5.35456 7.18423C5.35456 7.19001 5.35456 7.19001 5.35456 7.19578C5.36612 7.3056 5.29676 7.44432 5.19272 7.51368C5.08868 7.58304 4.95574 7.61194 4.82858 7.62928C4.73611 7.64084 4.63785 7.6524 4.54537 7.66396C4.16389 7.70442 3.76508 7.75066 3.46452 7.99919C3.10039 8.29975 2.99057 8.87196 3.21021 9.32857C3.41251 9.74473 3.846 10.0453 4.35463 10.1089C4.40665 10.1146 4.46445 10.1204 4.53381 10.1204C4.73033 10.1204 4.99042 10.08 5.20428 9.90078C5.3719 9.76207 5.47015 9.56555 5.55685 9.37481C5.56841 9.34591 5.57997 9.31701 5.59153 9.29389C5.66089 9.13784 5.73025 8.98178 5.83429 8.84884C5.94411 8.71012 6.07705 8.62342 6.21576 8.6003C6.22154 9.0338 6.05971 9.47885 5.72447 9.81409Z" fill="#FFD470"/>
</g>
</g>
<rect x="1.52496" y="1.52497" width="10.6716" height="9.85367" rx="1.05575" stroke="black" stroke-width="0.234611"/>
</g>
<defs>
<filter id="filter0_d_26_1021" x="-1.32918e-05" y="-1.84774e-06" width="13.7216" height="12.9036" filterUnits="userSpaceOnUse" color-interpolation-filters="sRGB">
<feFlood flood-opacity="0" result="BackgroundImageFix"/>
<feColorMatrix in="SourceAlpha" type="matrix" values="0 0 0 0 0 0 0 0 0 0 0 0 0 0 0 0 0 0 127 0" result="hardAlpha"/>
<feMorphology radius="0.469222" operator="dilate" in="SourceAlpha" result="effect1_dropShadow_26_1021"/>
<feOffset/>
<feGaussianBlur stdDeviation="0.469222"/>
<feComposite in2="hardAlpha" operator="out"/>
<feColorMatrix type="matrix" values="0 0 0 0 1 0 0 0 0 0.83125 0 0 0 0 0.4375 0 0 0 1 0"/>
<feBlend mode="normal" in2="BackgroundImageFix" result="effect1_dropShadow_26_1021"/>
<feBlend mode="normal" in="SourceGraphic" in2="effect1_dropShadow_26_1021" result="shape"/>
</filter>
<filter id="filter1_d_26_1021" x="2.77094" y="6.86055" width="5.42141" height="5.42576" filterUnits="userSpaceOnUse" color-interpolation-filters="sRGB">
<feFlood flood-opacity="0" result="BackgroundImageFix"/>
<feColorMatrix in="SourceAlpha" type="matrix" values="0 0 0 0 0 0 0 0 0 0 0 0 0 0 0 0 0 0 127 0" result="hardAlpha"/>
<feOffset dx="0.938445" dy="0.938445"/>
<feGaussianBlur stdDeviation="0.469222"/>
<feComposite in2="hardAlpha" operator="out"/>
<feColorMatrix type="matrix" values="0 0 0 0 0 0 0 0 0 0 0 0 0 0 0 0 0 0 0.83 0"/>
<feBlend mode="normal" in2="BackgroundImageFix" result="effect1_dropShadow_26_1021"/>
<feBlend mode="normal" in="SourceGraphic" in2="effect1_dropShadow_26_1021" result="shape"/>
</filter>
<clipPath id="clip0_26_1021">
<rect x="1.40765" y="1.40767" width="10.9062" height="10.0883" rx="1.17306" fill="white"/>
</clipPath>
</defs>
</svg>
