<svg width="11" height="11" viewBox="0 0 11 11" fill="none" xmlns="http://www.w3.org/2000/svg">
<rect width="10.5234" height="10.5234" fill="white"/>
<path fill-rule="evenodd" clip-rule="evenodd" d="M7.01891 3.77802L6.13868 2.10468L5.25845 3.77802C5.19626 3.9003 5.10626 4.00628 4.99566 4.08745C4.88453 4.16904 4.75593 4.22364 4.62005 4.24693L2.80627 4.60255L4.07259 6.11689C4.24576 6.30668 4.32748 6.56261 4.29633 6.81764L4.05545 8.76948L5.72546 7.96018C5.85429 7.89778 5.99553 7.86524 6.13868 7.86497C6.27298 7.86538 6.40522 7.89803 6.52428 7.96018L8.23333 8.71949L7.99244 6.79098C7.962 6.53651 8.04385 6.28139 8.21667 6.09213L9.47108 4.60255L7.6573 4.24693C7.52125 4.22371 7.39248 4.16911 7.28121 4.08745C7.17079 4.00623 7.08095 3.90025 7.01891 3.77802Z" fill="#FFD470"/>
</svg>
