<svg width="24" height="24" viewBox="0 0 24 24" fill="none" xmlns="http://www.w3.org/2000/svg">
<path d="M11.6581 0C5.21956 0 0 5.21956 0 11.6581C0 17.1253 3.76417 21.713 8.84197 22.973V15.2208H6.43807V11.6581H8.84197V10.123C8.84197 6.15501 10.6378 4.31583 14.5335 4.31583C15.2721 4.31583 16.5466 4.46086 17.0679 4.60542V7.83471C16.7928 7.8058 16.3148 7.79134 15.7212 7.79134C13.8097 7.79134 13.0711 8.51554 13.0711 10.3981V11.6581H16.8791L16.2248 15.2208H13.0711V23.2309C18.8437 22.5337 23.3167 17.6187 23.3167 11.6581C23.3162 5.21956 18.0966 0 11.6581 0Z" fill="white"/>
</svg>
