<svg width="24" height="17" viewBox="0 0 24 17" fill="none" xmlns="http://www.w3.org/2000/svg">
<path d="M23.0844 3.53849C23.0844 3.53849 22.8567 1.93091 22.1554 1.22504C21.2673 0.296012 20.2746 0.291458 19.8192 0.23681C16.5585 -1.30292e-07 11.6629 0 11.6629 0H11.6538C11.6538 0 6.75819 -1.30292e-07 3.4975 0.23681C3.0421 0.291458 2.04932 0.296012 1.16128 1.22504C0.459958 1.93091 0.23681 3.53849 0.23681 3.53849C0.23681 3.53849 0 5.42841 0 7.31378V9.08075C0 10.9661 0.232256 12.856 0.232256 12.856C0.232256 12.856 0.459958 14.4636 1.15673 15.1695C2.04476 16.0985 3.2106 16.0666 3.72976 16.1668C5.59691 16.3444 11.6583 16.3991 11.6583 16.3991C11.6583 16.3991 16.5585 16.39 19.8192 16.1577C20.2746 16.1031 21.2673 16.0985 22.1554 15.1695C22.8567 14.4636 23.0844 12.856 23.0844 12.856C23.0844 12.856 23.3167 10.9707 23.3167 9.08075V7.31378C23.3167 5.42841 23.0844 3.53849 23.0844 3.53849ZM9.24925 11.2257V4.67244L15.5475 7.96045L9.24925 11.2257Z" fill="white"/>
</svg>
